<svg width="30" height="30" viewBox="0 0 30 30" fill="none" xmlns="http://www.w3.org/2000/svg">
<g clip-path="url(#clip0_534_375)">
<path d="M29.3353 14.6676C29.3353 6.56692 22.7683 0 14.6676 0C6.56692 0 0 6.56692 0 14.6676C0 22.7683 6.56692 29.3353 14.6676 29.3353C22.7683 29.3353 29.3353 22.7683 29.3353 14.6676Z" fill="#19436B"/>
<path d="M14.6676 4.48145C11.9989 4.48145 9.82935 6.65103 9.82935 9.31973C9.82935 11.9375 11.8767 14.0561 14.5454 14.1478C14.6269 14.1376 14.7084 14.1376 14.7695 14.1478C14.7899 14.1478 14.8 14.1478 14.8204 14.1478C14.8306 14.1478 14.8306 14.1478 14.8408 14.1478C17.4484 14.0561 19.4957 11.9375 19.5059 9.31973C19.5059 6.65103 17.3363 4.48145 14.6676 4.48145Z" fill="white"/>
<path d="M19.843 16.5869C17.0012 14.6924 12.3666 14.6924 9.50442 16.5869C8.21081 17.4426 7.4978 18.6139 7.4978 19.8668C7.4978 21.1196 8.21081 22.2808 9.49423 23.1364C10.9202 24.0939 12.7944 24.5727 14.6686 24.5727C16.5428 24.5727 18.417 24.0939 19.843 23.1364C21.1264 22.2706 21.8394 21.1095 21.8394 19.8464C21.8293 18.6037 21.1264 17.4324 19.843 16.5869Z" fill="white"/>
</g>
<defs>
<clipPath id="clip0_534_375">
<rect width="29.3353" height="29.3353" fill="white"/>
</clipPath>
</defs>
</svg>
