<svg width="41" height="41" viewBox="0 0 41 41" fill="none" xmlns="http://www.w3.org/2000/svg">
<path fill-rule="evenodd" clip-rule="evenodd" d="M21.2966 6.1949C21.2966 5.55115 20.7678 5.0293 20.1156 5.0293C19.4633 5.0293 18.9346 5.55115 18.9346 6.1949V6.65326C18.2298 6.73456 17.5321 6.88362 16.853 7.09986C13.3152 8.2263 10.5506 11.0519 9.57157 14.6012L9.50098 14.8571C8.91603 16.9776 8.78815 19.1947 9.12428 21.3652C7.91657 22.2018 7.12427 23.5885 7.12427 25.1592C7.12427 27.3628 8.69717 29.2616 10.8855 29.6994L11.4644 29.8152C12.4298 30.0085 13.4002 30.1689 14.3739 30.2968C14.383 30.3361 14.3924 30.3753 14.4022 30.4145L14.5312 30.9302C15.0417 32.9692 16.6633 34.5562 18.7337 35.0426C19.6422 35.256 20.589 35.256 21.4975 35.0426C23.5679 34.5562 25.1896 32.9692 25.7 30.9302L25.8291 30.4145C25.8388 30.3753 25.8482 30.3361 25.8573 30.2968C26.831 30.1689 27.8014 30.0085 28.7668 29.8152L29.3456 29.6994C31.5341 29.2616 33.1069 27.3628 33.1069 25.1592C33.1069 23.5888 32.3149 22.2025 31.1078 21.3657C31.4484 19.2147 31.3342 17.0165 30.7715 14.9098L30.6733 14.5418C29.7377 11.0392 27.0686 8.24246 23.582 7.11136C22.8372 6.86977 22.0703 6.71093 21.2966 6.63415V6.1949ZM19.2808 32.7748C18.1329 32.505 17.2211 31.6567 16.8756 30.553C19.0325 30.7119 21.1987 30.7119 23.3556 30.553C23.0101 31.6567 22.0983 32.505 20.9504 32.7748C20.4016 32.9038 19.8296 32.9038 19.2808 32.7748Z" fill="#19436B"/>
</svg>
