<svg width="37" height="37" viewBox="0 0 37 37" fill="none" xmlns="http://www.w3.org/2000/svg">
<path d="M18.0203 24.0262C21.3376 24.0262 24.027 21.3368 24.027 18.0194C24.027 14.702 21.3376 12.0127 18.0203 12.0127V24.0262Z" fill="#19436B"/>
<path fill-rule="evenodd" clip-rule="evenodd" d="M18.0203 3.00293C9.72669 3.00293 3.00342 9.7262 3.00342 18.0198C3.00342 26.3133 9.72669 33.0366 18.0203 33.0366C26.3138 33.0366 33.0371 26.3133 33.0371 18.0198C33.0371 9.7262 26.3138 3.00293 18.0203 3.00293ZM18.0203 6.0063V12.013C14.7028 12.013 12.0135 14.7024 12.0135 18.0198C12.0135 21.3372 14.7028 24.0265 18.0203 24.0265V30.0333C24.6552 30.0333 30.0338 24.6547 30.0338 18.0198C30.0338 11.3849 24.6552 6.0063 18.0203 6.0063Z" fill="#19436B"/>
</svg>
